<svg width="40" height="40" viewBox="0 0 40 40" fill="none" xmlns="http://www.w3.org/2000/svg">
<rect x="0.5" y="0.5" width="39" height="39" rx="4.5" fill="#0C0C0C"/>
<rect x="0.5" y="0.5" width="39" height="39" rx="4.5" stroke="url(#paint0_linear_4112_1072)"/>
<path d="M20.1809 23.9659C15.7062 23.9659 11.9689 27.1763 11.0409 31.4727C10.8107 32.533 11.5805 33.5454 12.6416 33.5454H27.7202C28.7813 33.5454 29.5475 32.533 29.3209 31.4727C28.3965 27.1799 24.6556 23.9659 20.1809 23.9659Z" fill="white"/>
<path d="M19.9763 19.1761C23.0633 19.1761 25.5658 16.6743 25.5658 13.5881C25.5658 10.5019 23.0633 8 19.9763 8C16.8892 8 14.3867 10.5019 14.3867 13.5881C14.3867 16.6743 16.8892 19.1761 19.9763 19.1761Z" fill="white"/>
<defs>
<linearGradient id="paint0_linear_4112_1072" x1="0" y1="0" x2="43.4347" y2="4.16283" gradientUnits="userSpaceOnUse">
<stop stop-color="#FFD830" stop-opacity="0.85"/>
<stop offset="1" stop-color="#F7931A" stop-opacity="0.31"/>
</linearGradient>
</defs>
</svg>
