<svg width="40" height="40" viewBox="0 0 40 40" fill="none" xmlns="http://www.w3.org/2000/svg">
<rect x="0.5" y="0.5" width="39" height="39" rx="4.5" fill="#0C0C0C"/>
<rect x="0.5" y="0.5" width="39" height="39" rx="4.5" stroke="url(#paint0_linear_4112_1064)"/>
<path d="M18.5076 23.5341C13.8737 23.5341 10.0034 26.8587 9.04236 31.3081C8.80395 32.4061 9.60113 33.4546 10.7 33.4546H26.3152C27.4141 33.4546 28.2076 32.4061 27.9729 31.3081C27.0156 26.8625 23.1415 23.5341 18.5076 23.5341Z" fill="white"/>
<path d="M18.2963 18.5739C21.4931 18.5739 24.0847 15.983 24.0847 12.7869C24.0847 9.5909 21.4931 7 18.2963 7C15.0994 7 12.5078 9.5909 12.5078 12.7869C12.5078 15.983 15.0994 18.5739 18.2963 18.5739Z" fill="white"/>
<path d="M32.1468 20.322H25.5332" stroke="#FFD830" stroke-width="2" stroke-linecap="round" stroke-linejoin="round"/>
<path d="M28.8418 16.9915V23.6051" stroke="#FFD830" stroke-width="2" stroke-linecap="round" stroke-linejoin="round"/>
<defs>
<linearGradient id="paint0_linear_4112_1064" x1="0" y1="0" x2="43.4347" y2="4.16283" gradientUnits="userSpaceOnUse">
<stop stop-color="#FFD830" stop-opacity="0.85"/>
<stop offset="1" stop-color="#F7931A" stop-opacity="0.31"/>
</linearGradient>
</defs>
</svg>
