<svg width="40" height="40" viewBox="0 0 40 40" fill="none" xmlns="http://www.w3.org/2000/svg">
<rect x="0.5" y="0.5" width="39" height="39" rx="4.5" fill="#0C0C0C"/>
<rect x="0.5" y="0.5" width="39" height="39" rx="4.5" stroke="url(#paint0_linear_4112_1088)"/>
<path d="M14.4164 24.4848C10.8024 24.4848 7.77809 27.2474 7.0324 30.9435C6.84858 31.858 7.4694 32.7273 8.32607 32.7273H20.5103C21.367 32.7273 21.9878 31.858 21.804 30.9435C21.0548 27.2512 18.0339 24.4848 14.4199 24.4848H14.4164Z" fill="white"/>
<path d="M14.5782 19.959C16.6267 19.959 18.2873 18.2984 18.2873 16.25C18.2873 14.2015 16.6267 12.5409 14.5782 12.5409C12.5297 12.5409 10.8691 14.2015 10.8691 16.25C10.8691 18.2984 12.5297 19.959 14.5782 19.959Z" fill="white"/>
<path d="M25.4842 28.3015H32.108C32.9923 28.3015 33.6333 27.4323 33.4435 26.5177C32.6701 22.8255 29.5516 20.0591 25.8208 20.0591C23.6582 20.0591 21.7033 20.985 20.2891 22.4853" fill="#FFD830"/>
<path d="M25.7892 15.4182C27.8376 15.4182 29.4983 13.7576 29.4983 11.7091C29.4983 9.66062 27.8376 8 25.7892 8C23.7407 8 22.0801 9.66062 22.0801 11.7091C22.0801 13.7576 23.7407 15.4182 25.7892 15.4182Z" fill="#FFD830"/>
<defs>
<linearGradient id="paint0_linear_4112_1088" x1="0" y1="0" x2="43.4347" y2="4.16283" gradientUnits="userSpaceOnUse">
<stop stop-color="#FFD830" stop-opacity="0.85"/>
<stop offset="1" stop-color="#F7931A" stop-opacity="0.31"/>
</linearGradient>
</defs>
</svg>
